<?xml version="1.0" encoding="UTF-8" standalone="no"?>
<!DOCTYPE svg PUBLIC "-//W3C//DTD SVG 1.1//EN"
 "http://www.w3.org/Graphics/SVG/1.1/DTD/svg11.dtd">
<!-- Generated by graphviz version 11.0.0 (20240428.1522)
 -->
<!-- Title: G Pages: 1 -->
<svg width="659pt" height="232pt"
 viewBox="0.00 0.00 659.20 231.70" xmlns="http://www.w3.org/2000/svg" xmlns:xlink="http://www.w3.org/1999/xlink">
<g id="graph0" class="graph" transform="scale(1 1) rotate(0) translate(21.6 210.1)">
<title>G</title>
<polygon fill="#111111" stroke="none" points="-21.6,21.6 -21.6,-210.1 637.6,-210.1 637.6,21.6 -21.6,21.6"/>
<!-- app.controller.ts -->
<g id="node1" class="node">
<title>app.controller.ts</title>
<path fill="none" stroke="#c6c5fe" d="M375.08,-188.5C375.08,-188.5 274.17,-188.5 274.17,-188.5 270.08,-188.5 266,-184.42 266,-180.33 266,-180.33 266,-172.17 266,-172.17 266,-168.08 270.08,-164 274.17,-164 274.17,-164 375.08,-164 375.08,-164 379.17,-164 383.25,-168.08 383.25,-172.17 383.25,-172.17 383.25,-180.33 383.25,-180.33 383.25,-184.42 379.17,-188.5 375.08,-188.5"/>
<text text-anchor="middle" x="324.62" y="-171.2" font-family="Arial" font-size="14.00" fill="#c6c5fe">app.controller.ts</text>
</g>
<!-- app.service.ts -->
<g id="node2" class="node">
<title>app.service.ts</title>
<path fill="none" stroke="#cfffac" d="M575.21,-170.5C575.21,-170.5 487.04,-170.5 487.04,-170.5 482.96,-170.5 478.88,-166.42 478.88,-162.33 478.88,-162.33 478.88,-154.17 478.88,-154.17 478.88,-150.08 482.96,-146 487.04,-146 487.04,-146 575.21,-146 575.21,-146 579.29,-146 583.38,-150.08 583.38,-154.17 583.38,-154.17 583.38,-162.33 583.38,-162.33 583.38,-166.42 579.29,-170.5 575.21,-170.5"/>
<text text-anchor="middle" x="531.12" y="-153.2" font-family="Arial" font-size="14.00" fill="#cfffac">app.service.ts</text>
</g>
<!-- app.controller.ts&#45;&gt;app.service.ts -->
<g id="edge1" class="edge">
<title>app.controller.ts&#45;&gt;app.service.ts</title>
<path fill="none" stroke="#757575" d="M383.68,-171.14C409.82,-168.84 440.73,-166.12 467.41,-163.77"/>
<polygon fill="#757575" stroke="#757575" points="467.39,-167.29 477.04,-162.92 466.77,-160.31 467.39,-167.29"/>
</g>
<!-- app.module.ts -->
<g id="node3" class="node">
<title>app.module.ts</title>
<path fill="none" stroke="#c6c5fe" d="M194.83,-108.5C194.83,-108.5 105.17,-108.5 105.17,-108.5 101.08,-108.5 97,-104.42 97,-100.33 97,-100.33 97,-92.17 97,-92.17 97,-88.08 101.08,-84 105.17,-84 105.17,-84 194.83,-84 194.83,-84 198.92,-84 203,-88.08 203,-92.17 203,-92.17 203,-100.33 203,-100.33 203,-104.42 198.92,-108.5 194.83,-108.5"/>
<text text-anchor="middle" x="150" y="-91.2" font-family="Arial" font-size="14.00" fill="#c6c5fe">app.module.ts</text>
</g>
<!-- app.module.ts&#45;&gt;app.controller.ts -->
<g id="edge2" class="edge">
<title>app.module.ts&#45;&gt;app.controller.ts</title>
<path fill="none" stroke="#757575" d="M168.47,-108.81C185.72,-120.75 213.19,-138.59 239,-150.25 246.98,-153.85 255.59,-157.14 264.17,-160.07"/>
<polygon fill="#757575" stroke="#757575" points="262.93,-163.35 273.52,-163.13 265.1,-156.7 262.93,-163.35"/>
</g>
<!-- app.module.ts&#45;&gt;app.service.ts -->
<g id="edge3" class="edge">
<title>app.module.ts&#45;&gt;app.service.ts</title>
<path fill="none" stroke="#757575" d="M200.62,-108.96C213.1,-111.91 226.5,-114.88 239,-117.25 317.16,-132.05 408.06,-144.02 467.22,-151.13"/>
<polygon fill="#757575" stroke="#757575" points="466.76,-154.6 477.11,-152.31 467.59,-147.65 466.76,-154.6"/>
</g>
<!-- prisma/prisma.module.ts -->
<g id="node4" class="node">
<title>prisma/prisma.module.ts</title>
<path fill="none" stroke="#c6c5fe" d="M402.08,-108.5C402.08,-108.5 247.17,-108.5 247.17,-108.5 243.08,-108.5 239,-104.42 239,-100.33 239,-100.33 239,-92.17 239,-92.17 239,-88.08 243.08,-84 247.17,-84 247.17,-84 402.08,-84 402.08,-84 406.17,-84 410.25,-88.08 410.25,-92.17 410.25,-92.17 410.25,-100.33 410.25,-100.33 410.25,-104.42 406.17,-108.5 402.08,-108.5"/>
<text text-anchor="middle" x="324.62" y="-91.2" font-family="Arial" font-size="14.00" fill="#c6c5fe">prisma/prisma.module.ts</text>
</g>
<!-- app.module.ts&#45;&gt;prisma/prisma.module.ts -->
<g id="edge4" class="edge">
<title>app.module.ts&#45;&gt;prisma/prisma.module.ts</title>
<path fill="none" stroke="#757575" d="M203.26,-96.25C210.97,-96.25 219.11,-96.25 227.38,-96.25"/>
<polygon fill="#757575" stroke="#757575" points="227.18,-99.75 237.18,-96.25 227.18,-92.75 227.18,-99.75"/>
</g>
<!-- user/user.module.ts -->
<g id="node5" class="node">
<title>user/user.module.ts</title>
<path fill="none" stroke="#c6c5fe" d="M387.08,-28.5C387.08,-28.5 262.17,-28.5 262.17,-28.5 258.08,-28.5 254,-24.42 254,-20.33 254,-20.33 254,-12.17 254,-12.17 254,-8.08 258.08,-4 262.17,-4 262.17,-4 387.08,-4 387.08,-4 391.17,-4 395.25,-8.08 395.25,-12.17 395.25,-12.17 395.25,-20.33 395.25,-20.33 395.25,-24.42 391.17,-28.5 387.08,-28.5"/>
<text text-anchor="middle" x="324.62" y="-11.2" font-family="Arial" font-size="14.00" fill="#c6c5fe">user/user.module.ts</text>
</g>
<!-- app.module.ts&#45;&gt;user/user.module.ts -->
<g id="edge5" class="edge">
<title>app.module.ts&#45;&gt;user/user.module.ts</title>
<path fill="none" stroke="#757575" d="M168.47,-83.69C185.72,-71.75 213.19,-53.91 239,-42.25 246.98,-38.65 255.59,-35.36 264.17,-32.43"/>
<polygon fill="#757575" stroke="#757575" points="265.1,-35.8 273.52,-29.37 262.93,-29.15 265.1,-35.8"/>
</g>
<!-- user/user.service.ts -->
<g id="node6" class="node">
<title>user/user.service.ts</title>
<path fill="none" stroke="#cfffac" d="M592.83,-67.5C592.83,-67.5 469.42,-67.5 469.42,-67.5 465.33,-67.5 461.25,-63.42 461.25,-59.33 461.25,-59.33 461.25,-51.17 461.25,-51.17 461.25,-47.08 465.33,-43 469.42,-43 469.42,-43 592.83,-43 592.83,-43 596.92,-43 601,-47.08 601,-51.17 601,-51.17 601,-59.33 601,-59.33 601,-63.42 596.92,-67.5 592.83,-67.5"/>
<text text-anchor="middle" x="531.12" y="-50.2" font-family="Arial" font-size="14.00" fill="#cfffac">user/user.service.ts</text>
</g>
<!-- app.module.ts&#45;&gt;user/user.service.ts -->
<g id="edge6" class="edge">
<title>app.module.ts&#45;&gt;user/user.service.ts</title>
<path fill="none" stroke="#757575" d="M197.76,-83.57C211,-80.4 225.49,-77.31 239,-75.25 309.66,-64.47 390.87,-59.5 449.53,-57.2"/>
<polygon fill="#757575" stroke="#757575" points="449.57,-60.7 459.44,-56.84 449.32,-53.71 449.57,-60.7"/>
</g>
<!-- prisma/prisma.service.ts -->
<g id="node8" class="node">
<title>prisma/prisma.service.ts</title>
<path fill="none" stroke="#cfffac" d="M607.83,-110.5C607.83,-110.5 454.42,-110.5 454.42,-110.5 450.33,-110.5 446.25,-106.42 446.25,-102.33 446.25,-102.33 446.25,-94.17 446.25,-94.17 446.25,-90.08 450.33,-86 454.42,-86 454.42,-86 607.83,-86 607.83,-86 611.92,-86 616,-90.08 616,-94.17 616,-94.17 616,-102.33 616,-102.33 616,-106.42 611.92,-110.5 607.83,-110.5"/>
<text text-anchor="middle" x="531.12" y="-93.2" font-family="Arial" font-size="14.00" fill="#cfffac">prisma/prisma.service.ts</text>
</g>
<!-- prisma/prisma.module.ts&#45;&gt;prisma/prisma.service.ts -->
<g id="edge8" class="edge">
<title>prisma/prisma.module.ts&#45;&gt;prisma/prisma.service.ts</title>
<path fill="none" stroke="#757575" d="M410.57,-97.08C418.48,-97.16 426.53,-97.24 434.52,-97.32"/>
<polygon fill="#757575" stroke="#757575" points="434.22,-100.81 444.26,-97.41 434.29,-93.81 434.22,-100.81"/>
</g>
<!-- user/user.module.ts&#45;&gt;user/user.service.ts -->
<g id="edge10" class="edge">
<title>user/user.module.ts&#45;&gt;user/user.service.ts</title>
<path fill="none" stroke="#757575" d="M392.3,-28.97C411.49,-32.63 432.58,-36.65 452.38,-40.42"/>
<polygon fill="#757575" stroke="#757575" points="451.57,-43.83 462.05,-42.27 452.88,-36.96 451.57,-43.83"/>
</g>
<!-- user/user.controller.ts -->
<g id="node9" class="node">
<title>user/user.controller.ts</title>
<path fill="none" stroke="#cfffac" d="M599.21,-24.5C599.21,-24.5 463.04,-24.5 463.04,-24.5 458.96,-24.5 454.88,-20.42 454.88,-16.33 454.88,-16.33 454.88,-8.17 454.88,-8.17 454.88,-4.08 458.96,0 463.04,0 463.04,0 599.21,0 599.21,0 603.29,0 607.38,-4.08 607.38,-8.17 607.38,-8.17 607.38,-16.33 607.38,-16.33 607.38,-20.42 603.29,-24.5 599.21,-24.5"/>
<text text-anchor="middle" x="531.12" y="-7.2" font-family="Arial" font-size="14.00" fill="#cfffac">user/user.controller.ts</text>
</g>
<!-- user/user.module.ts&#45;&gt;user/user.controller.ts -->
<g id="edge9" class="edge">
<title>user/user.module.ts&#45;&gt;user/user.controller.ts</title>
<path fill="none" stroke="#757575" d="M395.72,-14.88C410.97,-14.58 427.3,-14.26 443.12,-13.95"/>
<polygon fill="#757575" stroke="#757575" points="443.09,-17.45 453.02,-13.76 442.95,-10.45 443.09,-17.45"/>
</g>
<!-- main.ts -->
<g id="node7" class="node">
<title>main.ts</title>
<path fill="none" stroke="#c6c5fe" d="M52.83,-108.5C52.83,-108.5 8.17,-108.5 8.17,-108.5 4.08,-108.5 0,-104.42 0,-100.33 0,-100.33 0,-92.17 0,-92.17 0,-88.08 4.08,-84 8.17,-84 8.17,-84 52.83,-84 52.83,-84 56.92,-84 61,-88.08 61,-92.17 61,-92.17 61,-100.33 61,-100.33 61,-104.42 56.92,-108.5 52.83,-108.5"/>
<text text-anchor="middle" x="30.5" y="-91.2" font-family="Arial" font-size="14.00" fill="#c6c5fe">main.ts</text>
</g>
<!-- main.ts&#45;&gt;app.module.ts -->
<g id="edge7" class="edge">
<title>main.ts&#45;&gt;app.module.ts</title>
<path fill="none" stroke="#757575" d="M61.45,-96.25C68.84,-96.25 77.03,-96.25 85.36,-96.25"/>
<polygon fill="#757575" stroke="#757575" points="85.21,-99.75 95.21,-96.25 85.21,-92.75 85.21,-99.75"/>
</g>
</g>
</svg>
